<?xml version="1.0" encoding="UTF-8" standalone="no"?>
<!DOCTYPE svg PUBLIC "-//W3C//DTD SVG 1.1//EN"
 "http://www.w3.org/Graphics/SVG/1.1/DTD/svg11.dtd">
<!-- Generated by graphviz version 2.47.0 (20210316.0004)
 -->
<!-- Title: dependencies Pages: 1 -->
<svg width="1577pt" height="284pt"
 viewBox="0.00 0.00 1577.00 284.00" xmlns="http://www.w3.org/2000/svg" xmlns:xlink="http://www.w3.org/1999/xlink">
<g id="graph0" class="graph" transform="scale(1 1) rotate(0) translate(4 280)">
<title>dependencies</title>
<polygon fill="white" stroke="transparent" points="-4,4 -4,-280 1573,-280 1573,4 -4,4"/>
<text text-anchor="start" x="763.51" y="-42.4" font-family="Times-12" font-weight="bold" font-size="14.00">Legend</text>
<polygon fill="#ffffb3" stroke="transparent" points="550.5,-10 550.5,-30 570.5,-30 570.5,-10 550.5,-10"/>
<text text-anchor="start" x="574.13" y="-15.4" font-family="Times-12" font-size="14.00"> &#160;Declarations</text>
<polygon fill="#8dd3c7" stroke="transparent" points="663.5,-10 663.5,-30 683.5,-30 683.5,-10 663.5,-10"/>
<text text-anchor="start" x="687.23" y="-15.4" font-family="Times-12" font-size="14.00"> &#160;Module</text>
<polygon fill="#80b1d3" stroke="transparent" points="749.5,-10 749.5,-30 769.5,-30 769.5,-10 749.5,-10"/>
<text text-anchor="start" x="773.28" y="-15.4" font-family="Times-12" font-size="14.00"> &#160;Bootstrap</text>
<polygon fill="#fdb462" stroke="transparent" points="846.5,-10 846.5,-30 866.5,-30 866.5,-10 846.5,-10"/>
<text text-anchor="start" x="870.17" y="-15.4" font-family="Times-12" font-size="14.00"> &#160;Providers</text>
<polygon fill="#fb8072" stroke="transparent" points="942.5,-10 942.5,-30 962.5,-30 962.5,-10 942.5,-10"/>
<text text-anchor="start" x="966.23" y="-15.4" font-family="Times-12" font-size="14.00"> &#160;Exports</text>
<g id="clust1" class="cluster">
<title>cluster_CoreModule</title>
<polygon fill="none" stroke="black" stroke-dasharray="1,5" points="8,-70 8,-268 1561,-268 1561,-70 8,-70"/>
</g>
<g id="clust8" class="cluster">
<title>cluster_CoreModule_imports</title>
<polygon fill="none" stroke="black" points="1431,-78 1431,-130 1553,-130 1553,-78 1431,-78"/>
</g>
<g id="clust11" class="cluster">
<title>cluster_CoreModule_providers</title>
<polygon fill="none" stroke="black" points="861,-78 861,-130 1423,-130 1423,-78 861,-78"/>
</g>
<g id="clust2" class="cluster">
<title>cluster_CoreModule_declarations</title>
<polygon fill="none" stroke="black" points="16,-78 16,-130 853,-130 853,-78 16,-78"/>
</g>
<g id="clust9" class="cluster">
<title>cluster_CoreModule_exports</title>
<polygon fill="none" stroke="black" points="336,-208 336,-260 1191,-260 1191,-208 336,-208"/>
</g>
<!-- ConfirmationDialogComponent -->
<g id="node1" class="node">
<title>ConfirmationDialogComponent</title>
<polygon fill="#ffffb3" stroke="black" points="845.37,-122 650.63,-122 650.63,-86 845.37,-86 845.37,-122"/>
<text text-anchor="middle" x="748" y="-99.8" font-family="Times,serif" font-size="14.00">ConfirmationDialogComponent</text>
</g>
<!-- CoreModule -->
<g id="node6" class="node">
<title>CoreModule</title>
<polygon fill="#8dd3c7" stroke="black" points="791.26,-187 788.26,-191 767.26,-191 764.26,-187 704.74,-187 704.74,-151 791.26,-151 791.26,-187"/>
<text text-anchor="middle" x="748" y="-164.8" font-family="Times,serif" font-size="14.00">CoreModule</text>
</g>
<!-- ConfirmationDialogComponent&#45;&gt;CoreModule -->
<g id="edge1" class="edge">
<title>ConfirmationDialogComponent&#45;&gt;CoreModule</title>
<path fill="none" stroke="black" d="M748,-122.11C748,-122.11 748,-140.99 748,-140.99"/>
<polygon fill="black" stroke="black" points="744.5,-140.99 748,-150.99 751.5,-140.99 744.5,-140.99"/>
</g>
<!-- LoadingComponent -->
<g id="node2" class="node">
<title>LoadingComponent</title>
<polygon fill="#ffffb3" stroke="black" points="632.99,-122 505.01,-122 505.01,-86 632.99,-86 632.99,-122"/>
<text text-anchor="middle" x="569" y="-99.8" font-family="Times,serif" font-size="14.00">LoadingComponent</text>
</g>
<!-- LoadingComponent&#45;&gt;CoreModule -->
<g id="edge2" class="edge">
<title>LoadingComponent&#45;&gt;CoreModule</title>
<path fill="none" stroke="black" d="M569,-122.24C569,-137.57 569,-157 569,-157 569,-157 694.67,-157 694.67,-157"/>
<polygon fill="black" stroke="black" points="694.67,-160.5 704.67,-157 694.67,-153.5 694.67,-160.5"/>
</g>
<!-- MessagesComponent -->
<g id="node3" class="node">
<title>MessagesComponent</title>
<polygon fill="#ffffb3" stroke="black" points="486.75,-122 351.25,-122 351.25,-86 486.75,-86 486.75,-122"/>
<text text-anchor="middle" x="419" y="-99.8" font-family="Times,serif" font-size="14.00">MessagesComponent</text>
</g>
<!-- MessagesComponent&#45;&gt;CoreModule -->
<g id="edge3" class="edge">
<title>MessagesComponent&#45;&gt;CoreModule</title>
<path fill="none" stroke="black" d="M480.23,-122.03C480.23,-139.06 480.23,-162 480.23,-162 480.23,-162 694.68,-162 694.68,-162"/>
<polygon fill="black" stroke="black" points="694.68,-165.5 704.68,-162 694.68,-158.5 694.68,-165.5"/>
</g>
<!-- PageNotFoundComponent -->
<g id="node4" class="node">
<title>PageNotFoundComponent</title>
<polygon fill="#ffffb3" stroke="black" points="332.82,-122 167.18,-122 167.18,-86 332.82,-86 332.82,-122"/>
<text text-anchor="middle" x="250" y="-99.8" font-family="Times,serif" font-size="14.00">PageNotFoundComponent</text>
</g>
<!-- PageNotFoundComponent&#45;&gt;CoreModule -->
<g id="edge4" class="edge">
<title>PageNotFoundComponent&#45;&gt;CoreModule</title>
<path fill="none" stroke="black" d="M250,-122.22C250,-140.83 250,-167 250,-167 250,-167 694.68,-167 694.68,-167"/>
<polygon fill="black" stroke="black" points="694.68,-170.5 704.68,-167 694.68,-163.5 694.68,-170.5"/>
</g>
<!-- ToolbarComponent -->
<g id="node5" class="node">
<title>ToolbarComponent</title>
<polygon fill="#ffffb3" stroke="black" points="149.65,-122 24.35,-122 24.35,-86 149.65,-86 149.65,-122"/>
<text text-anchor="middle" x="87" y="-99.8" font-family="Times,serif" font-size="14.00">ToolbarComponent</text>
</g>
<!-- ToolbarComponent&#45;&gt;CoreModule -->
<g id="edge5" class="edge">
<title>ToolbarComponent&#45;&gt;CoreModule</title>
<path fill="none" stroke="black" d="M87,-122.22C87,-142.37 87,-172 87,-172 87,-172 694.63,-172 694.63,-172"/>
<polygon fill="black" stroke="black" points="694.63,-175.5 704.63,-172 694.63,-168.5 694.63,-175.5"/>
</g>
<!-- ConfirmationDialogComponent  -->
<g id="node8" class="node">
<title>ConfirmationDialogComponent </title>
<polygon fill="#fb8072" stroke="black" points="1183.37,-252 984.63,-252 984.63,-216 1183.37,-216 1183.37,-252"/>
<text text-anchor="middle" x="1084" y="-229.8" font-family="Times,serif" font-size="14.00">ConfirmationDialogComponent </text>
</g>
<!-- CoreModule&#45;&gt;ConfirmationDialogComponent  -->
<g id="edge7" class="edge">
<title>CoreModule&#45;&gt;ConfirmationDialogComponent </title>
<path fill="none" stroke="black" stroke-dasharray="5,2" d="M791.3,-177C864.52,-177 1004.94,-177 1004.94,-177 1004.94,-177 1004.94,-205.96 1004.94,-205.96"/>
<polygon fill="black" stroke="black" points="1001.44,-205.96 1004.94,-215.96 1008.44,-205.96 1001.44,-205.96"/>
</g>
<!-- LoadingComponent  -->
<g id="node9" class="node">
<title>LoadingComponent </title>
<polygon fill="#fb8072" stroke="black" points="966.99,-252 835.01,-252 835.01,-216 966.99,-216 966.99,-252"/>
<text text-anchor="middle" x="901" y="-229.8" font-family="Times,serif" font-size="14.00">LoadingComponent </text>
</g>
<!-- CoreModule&#45;&gt;LoadingComponent  -->
<g id="edge8" class="edge">
<title>CoreModule&#45;&gt;LoadingComponent </title>
<path fill="none" stroke="black" stroke-dasharray="5,2" d="M791.47,-182C815.42,-182 840.34,-182 840.34,-182 840.34,-182 840.34,-205.81 840.34,-205.81"/>
<polygon fill="black" stroke="black" points="836.84,-205.81 840.34,-215.81 843.84,-205.81 836.84,-205.81"/>
</g>
<!-- MessagesComponent  -->
<g id="node10" class="node">
<title>MessagesComponent </title>
<polygon fill="#fb8072" stroke="black" points="817.75,-252 678.25,-252 678.25,-216 817.75,-216 817.75,-252"/>
<text text-anchor="middle" x="748" y="-229.8" font-family="Times,serif" font-size="14.00">MessagesComponent </text>
</g>
<!-- CoreModule&#45;&gt;MessagesComponent  -->
<g id="edge9" class="edge">
<title>CoreModule&#45;&gt;MessagesComponent </title>
<path fill="none" stroke="black" stroke-dasharray="5,2" d="M748,-187.11C748,-187.11 748,-205.99 748,-205.99"/>
<polygon fill="black" stroke="black" points="744.5,-205.99 748,-215.99 751.5,-205.99 744.5,-205.99"/>
</g>
<!-- PageNotFoundComponent  -->
<g id="node11" class="node">
<title>PageNotFoundComponent </title>
<polygon fill="#fb8072" stroke="black" points="660.32,-252 491.68,-252 491.68,-216 660.32,-216 660.32,-252"/>
<text text-anchor="middle" x="576" y="-229.8" font-family="Times,serif" font-size="14.00">PageNotFoundComponent </text>
</g>
<!-- CoreModule&#45;&gt;PageNotFoundComponent  -->
<g id="edge10" class="edge">
<title>CoreModule&#45;&gt;PageNotFoundComponent </title>
<path fill="none" stroke="black" stroke-dasharray="5,2" d="M704.72,-182C680.65,-182 655.49,-182 655.49,-182 655.49,-182 655.49,-205.81 655.49,-205.81"/>
<polygon fill="black" stroke="black" points="651.99,-205.81 655.49,-215.81 658.99,-205.81 651.99,-205.81"/>
</g>
<!-- ToolbarComponent  -->
<g id="node12" class="node">
<title>ToolbarComponent </title>
<polygon fill="#fb8072" stroke="black" points="473.65,-252 344.35,-252 344.35,-216 473.65,-216 473.65,-252"/>
<text text-anchor="middle" x="409" y="-229.8" font-family="Times,serif" font-size="14.00">ToolbarComponent </text>
</g>
<!-- CoreModule&#45;&gt;ToolbarComponent  -->
<g id="edge11" class="edge">
<title>CoreModule&#45;&gt;ToolbarComponent </title>
<path fill="none" stroke="black" stroke-dasharray="5,2" d="M704.46,-177C613.64,-177 412.35,-177 412.35,-177 412.35,-177 412.35,-205.96 412.35,-205.96"/>
<polygon fill="black" stroke="black" points="408.85,-205.96 412.35,-215.96 415.85,-205.96 408.85,-205.96"/>
</g>
<!-- MaterialModule -->
<g id="node7" class="node">
<title>MaterialModule</title>
<polygon fill="#8dd3c7" stroke="black" points="1545.47,-122 1542.47,-126 1521.47,-126 1518.47,-122 1438.53,-122 1438.53,-86 1545.47,-86 1545.47,-122"/>
<text text-anchor="middle" x="1492" y="-99.8" font-family="Times,serif" font-size="14.00">MaterialModule</text>
</g>
<!-- MaterialModule&#45;&gt;CoreModule -->
<g id="edge6" class="edge">
<title>MaterialModule&#45;&gt;CoreModule</title>
<path fill="none" stroke="black" d="M1492,-122.22C1492,-142.37 1492,-172 1492,-172 1492,-172 801.49,-172 801.49,-172"/>
<polygon fill="black" stroke="black" points="801.49,-168.5 791.49,-172 801.49,-175.5 801.49,-168.5"/>
</g>
<!-- HttpErrorInterceptor -->
<g id="node13" class="node">
<title>HttpErrorInterceptor</title>
<ellipse fill="#fdb462" stroke="black" cx="1324" cy="-104" rx="90.87" ry="18"/>
<text text-anchor="middle" x="1324" y="-99.8" font-family="Times,serif" font-size="14.00">HttpErrorInterceptor</text>
</g>
<!-- HttpErrorInterceptor&#45;&gt;CoreModule -->
<g id="edge12" class="edge">
<title>HttpErrorInterceptor&#45;&gt;CoreModule</title>
<path fill="none" stroke="black" d="M1324,-122.22C1324,-140.83 1324,-167 1324,-167 1324,-167 801.29,-167 801.29,-167"/>
<polygon fill="black" stroke="black" points="801.29,-163.5 791.29,-167 801.29,-170.5 801.29,-163.5"/>
</g>
<!-- LoadingInterceptor -->
<g id="node14" class="node">
<title>LoadingInterceptor</title>
<ellipse fill="#fdb462" stroke="black" cx="1129" cy="-104" rx="85.66" ry="18"/>
<text text-anchor="middle" x="1129" y="-99.8" font-family="Times,serif" font-size="14.00">LoadingInterceptor</text>
</g>
<!-- LoadingInterceptor&#45;&gt;CoreModule -->
<g id="edge13" class="edge">
<title>LoadingInterceptor&#45;&gt;CoreModule</title>
<path fill="none" stroke="black" d="M1113.3,-121.72C1113.3,-138.77 1113.3,-162 1113.3,-162 1113.3,-162 801.34,-162 801.34,-162"/>
<polygon fill="black" stroke="black" points="801.34,-158.5 791.34,-162 801.34,-165.5 801.34,-158.5"/>
</g>
<!-- TokenInterceptor -->
<g id="node15" class="node">
<title>TokenInterceptor</title>
<ellipse fill="#fdb462" stroke="black" cx="947" cy="-104" rx="78.13" ry="18"/>
<text text-anchor="middle" x="947" y="-99.8" font-family="Times,serif" font-size="14.00">TokenInterceptor</text>
</g>
<!-- TokenInterceptor&#45;&gt;CoreModule -->
<g id="edge14" class="edge">
<title>TokenInterceptor&#45;&gt;CoreModule</title>
<path fill="none" stroke="black" d="M917.84,-120.77C917.84,-136.3 917.84,-157 917.84,-157 917.84,-157 801.3,-157 801.3,-157"/>
<polygon fill="black" stroke="black" points="801.3,-153.5 791.3,-157 801.3,-160.5 801.3,-153.5"/>
</g>
</g>
</svg>
