<?xml version="1.0" encoding="UTF-8" standalone="no"?>
<!DOCTYPE svg PUBLIC "-//W3C//DTD SVG 1.1//EN"
 "http://www.w3.org/Graphics/SVG/1.1/DTD/svg11.dtd">
<!-- Generated by graphviz version 2.47.0 (20210316.0004)
 -->
<!-- Title: dependencies Pages: 1 -->
<svg width="504pt" height="219pt"
 viewBox="0.00 0.00 504.00 219.00" xmlns="http://www.w3.org/2000/svg" xmlns:xlink="http://www.w3.org/1999/xlink">
<g id="graph0" class="graph" transform="scale(1 1) rotate(0) translate(4 215)">
<title>dependencies</title>
<polygon fill="white" stroke="transparent" points="-4,4 -4,-215 500,-215 500,4 -4,4"/>
<text text-anchor="start" x="227.01" y="-42.4" font-family="Times-12" font-weight="bold" font-size="14.00">Legend</text>
<polygon fill="#ffffb3" stroke="transparent" points="14,-10 14,-30 34,-30 34,-10 14,-10"/>
<text text-anchor="start" x="37.63" y="-15.4" font-family="Times-12" font-size="14.00"> &#160;Declarations</text>
<polygon fill="#8dd3c7" stroke="transparent" points="127,-10 127,-30 147,-30 147,-10 127,-10"/>
<text text-anchor="start" x="150.73" y="-15.4" font-family="Times-12" font-size="14.00"> &#160;Module</text>
<polygon fill="#80b1d3" stroke="transparent" points="213,-10 213,-30 233,-30 233,-10 213,-10"/>
<text text-anchor="start" x="236.78" y="-15.4" font-family="Times-12" font-size="14.00"> &#160;Bootstrap</text>
<polygon fill="#fdb462" stroke="transparent" points="310,-10 310,-30 330,-30 330,-10 310,-10"/>
<text text-anchor="start" x="333.67" y="-15.4" font-family="Times-12" font-size="14.00"> &#160;Providers</text>
<polygon fill="#fb8072" stroke="transparent" points="406,-10 406,-30 426,-30 426,-10 406,-10"/>
<text text-anchor="start" x="429.73" y="-15.4" font-family="Times-12" font-size="14.00"> &#160;Exports</text>
<g id="clust1" class="cluster">
<title>cluster_MaterialModule</title>
<polygon fill="none" stroke="black" stroke-dasharray="1,5" points="170,-70 170,-203 326,-203 326,-70 170,-70"/>
</g>
<g id="clust3" class="cluster">
<title>cluster_MaterialModule_imports</title>
<polygon fill="none" stroke="black" points="178,-78 178,-130 318,-130 318,-78 178,-78"/>
</g>
<g id="clust4" class="cluster">
<title>cluster_MaterialModule_exports</title>
<polygon fill="none" stroke="black" points="178,-143 178,-195 304,-195 304,-143 178,-143"/>
</g>
<!-- MaterialModule -->
<g id="node1" class="node">
<title>MaterialModule</title>
<polygon fill="#8dd3c7" stroke="black" points="292.47,-122 289.47,-126 268.47,-126 265.47,-122 185.53,-122 185.53,-86 292.47,-86 292.47,-122"/>
<text text-anchor="middle" x="239" y="-99.8" font-family="Times,serif" font-size="14.00">MaterialModule</text>
</g>
<!-- MaterialModule&#45;&gt;MaterialModule -->
<g id="edge1" class="edge">
<title>MaterialModule&#45;&gt;MaterialModule</title>
<path fill="none" stroke="black" d="M239,-85.58C239,-76.72 239,-68 239,-68 239,-68 167.51,-68 167.51,-68 167.51,-68 167.51,-137 167.51,-137 167.51,-137 221.34,-137 221.34,-137 221.34,-137 221.34,-132.04 221.34,-132.04"/>
<polygon fill="black" stroke="black" points="224.84,-132.04 221.34,-122.04 217.84,-132.04 224.84,-132.04"/>
</g>
<!-- MaterialModule  -->
<g id="node2" class="node">
<title>MaterialModule </title>
<polygon fill="#fb8072" stroke="black" points="296.47,-187 185.53,-187 185.53,-151 296.47,-151 296.47,-187"/>
<text text-anchor="middle" x="241" y="-164.8" font-family="Times,serif" font-size="14.00">MaterialModule </text>
</g>
<!-- MaterialModule&#45;&gt;MaterialModule  -->
<g id="edge2" class="edge">
<title>MaterialModule&#45;&gt;MaterialModule </title>
<path fill="none" stroke="black" stroke-dasharray="5,2" d="M256.91,-122.11C256.91,-122.11 256.91,-140.99 256.91,-140.99"/>
<polygon fill="black" stroke="black" points="253.41,-140.99 256.91,-150.99 260.41,-140.99 253.41,-140.99"/>
</g>
</g>
</svg>
