<?xml version="1.0" encoding="UTF-8" standalone="no"?>
<!DOCTYPE svg PUBLIC "-//W3C//DTD SVG 1.1//EN"
 "http://www.w3.org/Graphics/SVG/1.1/DTD/svg11.dtd">
<!-- Generated by graphviz version 2.47.0 (20210316.0004)
 -->
<!-- Title: dependencies Pages: 1 -->
<svg width="504pt" height="284pt"
 viewBox="0.00 0.00 504.00 284.00" xmlns="http://www.w3.org/2000/svg" xmlns:xlink="http://www.w3.org/1999/xlink">
<g id="graph0" class="graph" transform="scale(1 1) rotate(0) translate(4 280)">
<title>dependencies</title>
<polygon fill="white" stroke="transparent" points="-4,4 -4,-280 500,-280 500,4 -4,4"/>
<text text-anchor="start" x="227.01" y="-42.4" font-family="Times-12" font-weight="bold" font-size="14.00">Legend</text>
<polygon fill="#ffffb3" stroke="transparent" points="14,-10 14,-30 34,-30 34,-10 14,-10"/>
<text text-anchor="start" x="37.63" y="-15.4" font-family="Times-12" font-size="14.00"> &#160;Declarations</text>
<polygon fill="#8dd3c7" stroke="transparent" points="127,-10 127,-30 147,-30 147,-10 127,-10"/>
<text text-anchor="start" x="150.73" y="-15.4" font-family="Times-12" font-size="14.00"> &#160;Module</text>
<polygon fill="#80b1d3" stroke="transparent" points="213,-10 213,-30 233,-30 233,-10 213,-10"/>
<text text-anchor="start" x="236.78" y="-15.4" font-family="Times-12" font-size="14.00"> &#160;Bootstrap</text>
<polygon fill="#fdb462" stroke="transparent" points="310,-10 310,-30 330,-30 330,-10 310,-10"/>
<text text-anchor="start" x="333.67" y="-15.4" font-family="Times-12" font-size="14.00"> &#160;Providers</text>
<polygon fill="#fb8072" stroke="transparent" points="406,-10 406,-30 426,-30 426,-10 406,-10"/>
<text text-anchor="start" x="429.73" y="-15.4" font-family="Times-12" font-size="14.00"> &#160;Exports</text>
<g id="clust1" class="cluster">
<title>cluster_SharedModule</title>
<polygon fill="none" stroke="black" stroke-dasharray="1,5" points="93,-70 93,-268 403,-268 403,-70 93,-70"/>
</g>
<g id="clust2" class="cluster">
<title>cluster_SharedModule_declarations</title>
<polygon fill="none" stroke="black" points="231,-78 231,-130 395,-130 395,-78 231,-78"/>
</g>
<g id="clust4" class="cluster">
<title>cluster_SharedModule_imports</title>
<polygon fill="none" stroke="black" points="101,-78 101,-130 223,-130 223,-78 101,-78"/>
</g>
<g id="clust5" class="cluster">
<title>cluster_SharedModule_exports</title>
<polygon fill="none" stroke="black" points="165,-208 165,-260 331,-260 331,-208 165,-208"/>
</g>
<!-- HeroSearchComponent -->
<g id="node1" class="node">
<title>HeroSearchComponent</title>
<polygon fill="#ffffb3" stroke="black" points="386.9,-122 239.1,-122 239.1,-86 386.9,-86 386.9,-122"/>
<text text-anchor="middle" x="313" y="-99.8" font-family="Times,serif" font-size="14.00">HeroSearchComponent</text>
</g>
<!-- SharedModule -->
<g id="node2" class="node">
<title>SharedModule</title>
<polygon fill="#8dd3c7" stroke="black" points="297.42,-187 294.42,-191 273.42,-191 270.42,-187 198.58,-187 198.58,-151 297.42,-151 297.42,-187"/>
<text text-anchor="middle" x="248" y="-164.8" font-family="Times,serif" font-size="14.00">SharedModule</text>
</g>
<!-- HeroSearchComponent&#45;&gt;SharedModule -->
<g id="edge1" class="edge">
<title>HeroSearchComponent&#45;&gt;SharedModule</title>
<path fill="none" stroke="black" d="M268.26,-122.11C268.26,-122.11 268.26,-140.99 268.26,-140.99"/>
<polygon fill="black" stroke="black" points="264.76,-140.99 268.26,-150.99 271.76,-140.99 264.76,-140.99"/>
</g>
<!-- HeroSearchComponent  -->
<g id="node4" class="node">
<title>HeroSearchComponent </title>
<polygon fill="#fb8072" stroke="black" points="323.4,-252 172.6,-252 172.6,-216 323.4,-216 323.4,-252"/>
<text text-anchor="middle" x="248" y="-229.8" font-family="Times,serif" font-size="14.00">HeroSearchComponent </text>
</g>
<!-- SharedModule&#45;&gt;HeroSearchComponent  -->
<g id="edge3" class="edge">
<title>SharedModule&#45;&gt;HeroSearchComponent </title>
<path fill="none" stroke="black" stroke-dasharray="5,2" d="M248,-187.11C248,-187.11 248,-205.99 248,-205.99"/>
<polygon fill="black" stroke="black" points="244.5,-205.99 248,-215.99 251.5,-205.99 244.5,-205.99"/>
</g>
<!-- MaterialModule -->
<g id="node3" class="node">
<title>MaterialModule</title>
<polygon fill="#8dd3c7" stroke="black" points="215.47,-122 212.47,-126 191.47,-126 188.47,-122 108.53,-122 108.53,-86 215.47,-86 215.47,-122"/>
<text text-anchor="middle" x="162" y="-99.8" font-family="Times,serif" font-size="14.00">MaterialModule</text>
</g>
<!-- MaterialModule&#45;&gt;SharedModule -->
<g id="edge2" class="edge">
<title>MaterialModule&#45;&gt;SharedModule</title>
<path fill="none" stroke="black" d="M207.14,-122.11C207.14,-122.11 207.14,-140.99 207.14,-140.99"/>
<polygon fill="black" stroke="black" points="203.64,-140.99 207.14,-150.99 210.64,-140.99 203.64,-140.99"/>
</g>
</g>
</svg>
