<?xml version="1.0" encoding="UTF-8" standalone="no"?>
<!DOCTYPE svg PUBLIC "-//W3C//DTD SVG 1.1//EN"
 "http://www.w3.org/Graphics/SVG/1.1/DTD/svg11.dtd">
<!-- Generated by graphviz version 2.47.0 (20210316.0004)
 -->
<!-- Title: dependencies Pages: 1 -->
<svg width="748pt" height="211pt"
 viewBox="0.00 0.00 748.00 211.00" xmlns="http://www.w3.org/2000/svg" xmlns:xlink="http://www.w3.org/1999/xlink">
<g id="graph0" class="graph" transform="scale(1 1) rotate(0) translate(4 207)">
<title>dependencies</title>
<polygon fill="white" stroke="transparent" points="-4,4 -4,-207 744,-207 744,4 -4,4"/>
<text text-anchor="start" x="349.01" y="-42.4" font-family="Times-12" font-weight="bold" font-size="14.00">Legend</text>
<polygon fill="#ffffb3" stroke="transparent" points="136,-10 136,-30 156,-30 156,-10 136,-10"/>
<text text-anchor="start" x="159.63" y="-15.4" font-family="Times-12" font-size="14.00"> &#160;Declarations</text>
<polygon fill="#8dd3c7" stroke="transparent" points="249,-10 249,-30 269,-30 269,-10 249,-10"/>
<text text-anchor="start" x="272.73" y="-15.4" font-family="Times-12" font-size="14.00"> &#160;Module</text>
<polygon fill="#80b1d3" stroke="transparent" points="335,-10 335,-30 355,-30 355,-10 335,-10"/>
<text text-anchor="start" x="358.78" y="-15.4" font-family="Times-12" font-size="14.00"> &#160;Bootstrap</text>
<polygon fill="#fdb462" stroke="transparent" points="432,-10 432,-30 452,-30 452,-10 432,-10"/>
<text text-anchor="start" x="455.67" y="-15.4" font-family="Times-12" font-size="14.00"> &#160;Providers</text>
<polygon fill="#fb8072" stroke="transparent" points="528,-10 528,-30 548,-30 548,-10 528,-10"/>
<text text-anchor="start" x="551.73" y="-15.4" font-family="Times-12" font-size="14.00"> &#160;Exports</text>
<g id="clust1" class="cluster">
<title>cluster_HeroesModule</title>
<polygon fill="none" stroke="black" stroke-dasharray="1,5" points="8,-70 8,-195 732,-195 732,-70 8,-70"/>
</g>
<g id="clust2" class="cluster">
<title>cluster_HeroesModule_declarations</title>
<polygon fill="none" stroke="black" points="426,-78 426,-130 724,-130 724,-78 426,-78"/>
</g>
<g id="clust5" class="cluster">
<title>cluster_HeroesModule_imports</title>
<polygon fill="none" stroke="black" points="16,-78 16,-130 418,-130 418,-78 16,-78"/>
</g>
<!-- HeroDetailComponent -->
<g id="node1" class="node">
<title>HeroDetailComponent</title>
<polygon fill="#ffffb3" stroke="black" points="715.52,-122 572.48,-122 572.48,-86 715.52,-86 715.52,-122"/>
<text text-anchor="middle" x="644" y="-99.8" font-family="Times,serif" font-size="14.00">HeroDetailComponent</text>
</g>
<!-- HeroesModule -->
<g id="node3" class="node">
<title>HeroesModule</title>
<polygon fill="#8dd3c7" stroke="black" points="387.69,-187 384.69,-191 363.69,-191 360.69,-187 288.31,-187 288.31,-151 387.69,-151 387.69,-187"/>
<text text-anchor="middle" x="338" y="-164.8" font-family="Times,serif" font-size="14.00">HeroesModule</text>
</g>
<!-- HeroDetailComponent&#45;&gt;HeroesModule -->
<g id="edge1" class="edge">
<title>HeroDetailComponent&#45;&gt;HeroesModule</title>
<path fill="none" stroke="black" d="M644,-122.28C644,-143.32 644,-175 644,-175 644,-175 397.85,-175 397.85,-175"/>
<polygon fill="black" stroke="black" points="397.85,-171.5 387.85,-175 397.85,-178.5 397.85,-171.5"/>
</g>
<!-- HeroesComponent -->
<g id="node2" class="node">
<title>HeroesComponent</title>
<polygon fill="#ffffb3" stroke="black" points="554.47,-122 433.53,-122 433.53,-86 554.47,-86 554.47,-122"/>
<text text-anchor="middle" x="494" y="-99.8" font-family="Times,serif" font-size="14.00">HeroesComponent</text>
</g>
<!-- HeroesComponent&#45;&gt;HeroesModule -->
<g id="edge2" class="edge">
<title>HeroesComponent&#45;&gt;HeroesModule</title>
<path fill="none" stroke="black" d="M494,-122.02C494,-139.37 494,-163 494,-163 494,-163 397.79,-163 397.79,-163"/>
<polygon fill="black" stroke="black" points="397.79,-159.5 387.79,-163 397.79,-166.5 397.79,-159.5"/>
</g>
<!-- HeroesRoutingModule -->
<g id="node4" class="node">
<title>HeroesRoutingModule</title>
<polygon fill="#8dd3c7" stroke="black" points="410.31,-122 407.31,-126 386.31,-126 383.31,-122 265.69,-122 265.69,-86 410.31,-86 410.31,-122"/>
<text text-anchor="middle" x="338" y="-99.8" font-family="Times,serif" font-size="14.00">HeroesRoutingModule</text>
</g>
<!-- HeroesRoutingModule&#45;&gt;HeroesModule -->
<g id="edge3" class="edge">
<title>HeroesRoutingModule&#45;&gt;HeroesModule</title>
<path fill="none" stroke="black" d="M338,-122.11C338,-122.11 338,-140.99 338,-140.99"/>
<polygon fill="black" stroke="black" points="334.5,-140.99 338,-150.99 341.5,-140.99 334.5,-140.99"/>
</g>
<!-- MaterialModule -->
<g id="node5" class="node">
<title>MaterialModule</title>
<polygon fill="#8dd3c7" stroke="black" points="247.47,-122 244.47,-126 223.47,-126 220.47,-122 140.53,-122 140.53,-86 247.47,-86 247.47,-122"/>
<text text-anchor="middle" x="194" y="-99.8" font-family="Times,serif" font-size="14.00">MaterialModule</text>
</g>
<!-- MaterialModule&#45;&gt;HeroesModule -->
<g id="edge4" class="edge">
<title>MaterialModule&#45;&gt;HeroesModule</title>
<path fill="none" stroke="black" d="M194,-122.02C194,-139.37 194,-163 194,-163 194,-163 278.04,-163 278.04,-163"/>
<polygon fill="black" stroke="black" points="278.04,-166.5 288.04,-163 278.04,-159.5 278.04,-166.5"/>
</g>
<!-- SharedModule -->
<g id="node6" class="node">
<title>SharedModule</title>
<polygon fill="#8dd3c7" stroke="black" points="122.42,-122 119.42,-126 98.42,-126 95.42,-122 23.58,-122 23.58,-86 122.42,-86 122.42,-122"/>
<text text-anchor="middle" x="73" y="-99.8" font-family="Times,serif" font-size="14.00">SharedModule</text>
</g>
<!-- SharedModule&#45;&gt;HeroesModule -->
<g id="edge5" class="edge">
<title>SharedModule&#45;&gt;HeroesModule</title>
<path fill="none" stroke="black" d="M73,-122.28C73,-143.32 73,-175 73,-175 73,-175 278.16,-175 278.16,-175"/>
<polygon fill="black" stroke="black" points="278.16,-178.5 288.16,-175 278.16,-171.5 278.16,-178.5"/>
</g>
</g>
</svg>
